<?xml version="1.0" encoding="UTF-8" standalone="no"?>
<svg
   width="24"
   height="24"
   viewBox="0 0 24 24"
   fill="none"
   stroke="currentColor"
   stroke-width="2"
   stroke-linecap="round"
   stroke-linejoin="round"
   class="lucide lucide-user-pen-icon lucide-user-pen"
   version="1.1"
   id="svg2"
   xml:space="preserve"
   xmlns="http://www.w3.org/2000/svg"
   xmlns:svg="http://www.w3.org/2000/svg"><defs
     id="defs2" /><g
     id="g3"
     transform="translate(0,-6)"><path
       d="m 21.378,16.626 a 2.1241488,2.1241488 0 0 0 -3.004,-3.004 l -4.01,4.012 a 2,2 0 0 0 -0.506,0.854 l -0.837,2.87 a 0.5,0.5 0 0 0 0.62,0.62 l 2.87,-0.837 a 2,2 0 0 0 0.854,-0.506 z"
       id="path2" /></g><g
     style="opacity:1;fill:none;stroke:#ff0000;stroke-width:2;stroke-linecap:round;stroke-linejoin:round"
     id="g2"
     transform="translate(0.52451461,0.50232235)"><path
       d="M 14.762,4.762 12.586,2.586 C 12.211015,2.2109013 11.70239,2.0001133 11.172,2 H 4 C 2.8954305,2 2,2.8954305 2,4 v 7.172 c 1.133e-4,0.53039 0.2109013,1.039015 0.586,1.414 l 8.704,8.704 c 0.946154,0.94018 2.473846,0.94018 3.42,0 L 18,18"
       id="path1-9"
       style="stroke:#000000" /><circle
       cx="7.5"
       cy="7.5"
       r="0.5"
       fill="currentColor"
       data-darkreader-inline-fill=""
       id="circle1"
       style="stroke:#000000;fill:none" /></g></svg>
